/* XPM */
static char *_d4dc54690f74e99e84be85077daf9f1[] = {
/* columns rows colors chars-per-pixel */
"16 16 89 1 ",
"  c None",
". c #241102",
"X c #2E1405",
"o c #20150A",
"O c #26180E",
"+ c #28180C",
"@ c #391E0F",
"# c #2A1F14",
"$ c #281D18",
"% c #3E1E11",
"& c #372115",
"* c #372317",
"= c #382216",
"- c #352618",
"; c #32271E",
": c #38231B",
"> c #3B241C",
", c #38271D",
"< c #372C26",
"1 c #551D02",
"2 c #46210F",
"3 c #49200D",
"4 c #572002",
"5 c #5B2402",
"6 c #5E300D",
"7 c #482314",
"8 c #482E1D",
"9 c #532913",
"0 c #592A1C",
"q c #642501",
"w c #642A06",
"e c #6B2B01",
"r c #712E03",
"t c #7D3504",
"y c #6D371F",
"u c #412B21",
"i c #423323",
"p c #453322",
"a c #423423",
"s c #423525",
"d c #593422",
"f c #573C28",
"g c #613622",
"h c #683729",
"j c #594732",
"k c #594733",
"l c #5D4732",
"z c #594C38",
"x c #61402E",
"c c #624435",
"v c #784431",
"b c #714A30",
"n c #533F48",
"m c #56434C",
"M c #6A4F42",
"N c #6F5447",
"B c #64554C",
"V c #7D5440",
"C c #7A5745",
"Z c #735849",
"A c #765E51",
"S c #7B6050",
"D c #796256",
"F c #7C6356",
"G c #863A04",
"H c #8F4209",
"J c #904309",
"K c #9D4B0B",
"L c #A84F07",
"P c #A04E09",
"I c #BF620D",
"U c #814B2F",
"Y c #8A4C28",
"T c #9A562F",
"R c #865037",
"E c #8D5030",
"W c #8F5433",
"Q c #8E5436",
"! c #8A563B",
"~ c #915C3D",
"^ c #A55F35",
"/ c #A56535",
"( c #A96336",
") c #825B48",
"_ c #805C4A",
"` c #9A6342",
"' c #886A5B",
"] c #90786C",
"[ c #A38A7E",
/* pixels */
"                ",
"        v       ",
"        /Y      ",
"       GILw     ",
"      tKP5bc    ",
"  m   1Hrx`Ty   ",
" n   #>4eS^WDN  ",
"    z <uhF(!][d ",
"   s  &39Z~E_Mg ",
"      0Jq@'UQRV ",
"      76XO,A)C  ",
"     skioa-+*   ",
"     8lp.jf2    ",
"     :%    =$   ",
"           B;   ",
"                "
};
