/* XPM */
static char *b0661a79cfc2433492d5b5e3cc81246f[] = {
/* columns rows colors chars-per-pixel */
"32 32 255 2 ",
"   c None",
".  c #100600",
"X  c #150800",
"o  c #1A0D03",
"O  c #220F02",
"+  c #2E0F06",
"@  c #231003",
"#  c #2A1302",
"$  c #24150B",
"%  c #24190D",
"&  c #2C1A0F",
"*  c #311406",
"=  c #391201",
"-  c #381502",
";  c #3C1701",
":  c #381606",
">  c #30140B",
",  c #351A0D",
"<  c #3D1B0A",
"1  c #38180D",
"2  c #3E1A0D",
"3  c #3E1C0D",
"4  c #241510",
"5  c #251B15",
"6  c #281C12",
"7  c #241D1C",
"8  c #2E1F1A",
"9  c #3A1D11",
"0  c #2D2114",
"q  c #2D221C",
"w  c #322416",
"e  c #382014",
"r  c #3F2214",
"t  c #3E2517",
"y  c #32241B",
"u  c #392619",
"i  c #34291B",
"p  c #3A2D1E",
"a  c #342723",
"s  c #322926",
"d  c #3A2B23",
"f  c #382B2A",
"g  c #3D2F2B",
"h  c #3C3122",
"j  c #3D322D",
"k  c #3C2932",
"l  c #3E2B34",
"z  c #411501",
"x  c #441806",
"c  c #411D06",
"v  c #4A1901",
"b  c #4C1900",
"n  c #4B1D00",
"m  c #451708",
"M  c #431D0B",
"N  c #4B1D0F",
"B  c #501800",
"V  c #511D00",
"C  c #561D01",
"Z  c #401F12",
"A  c #47200C",
"S  c #4C210E",
"D  c #5E2100",
"F  c #50230F",
"G  c #592D0F",
"H  c #422212",
"J  c #4C2412",
"K  c #492518",
"L  c #512313",
"P  c #562B12",
"I  c #542F1E",
"U  c #5D2A1B",
"Y  c #52311F",
"T  c #5E311D",
"R  c #612200",
"E  c #652601",
"W  c #682500",
"Q  c #6C2701",
"!  c #642901",
"~  c #6D2901",
"^  c #6D2E0C",
"/  c #702B01",
"(  c #702E04",
")  c #752F04",
"_  c #773101",
"`  c #733207",
"'  c #763107",
"]  c #7B3101",
"[  c #7D3102",
"{  c #7E3402",
"}  c #7C380A",
"|  c #61311D",
" . c #6B341D",
".. c #422F24",
"X. c #4C2F22",
"o. c #4B2C2B",
"O. c #433424",
"+. c #483927",
"@. c #4F342B",
"#. c #463A29",
"$. c #4E3B29",
"%. c #543521",
"&. c #563825",
"*. c #443334",
"=. c #423735",
"-. c #4F3B32",
";. c #49363A",
":. c #4C393E",
">. c #483D3E",
",. c #533F33",
"<. c #543E33",
"1. c #513F37",
"2. c #663221",
"3. c #663823",
"4. c #693A22",
"5. c #6C3822",
"6. c #663C29",
"7. c #693E2B",
"8. c #733A21",
"9. c #773B22",
"0. c #703927",
"q. c #793B34",
"w. c #7D431E",
"e. c #50412E",
"r. c #4C403C",
"t. c #544330",
"y. c #5B4632",
"u. c #5B4B35",
"i. c #56443A",
"p. c #584338",
"a. c #574A3F",
"s. c #5C4C38",
"d. c #64422B",
"f. c #6C402D",
"g. c #7C4022",
"h. c #70452E",
"j. c #7B462D",
"k. c #7F4C2E",
"l. c #674A3B",
"z. c #6B4838",
"x. c #6E4A39",
"c. c #6E4D3C",
"v. c #754833",
"b. c #794A31",
"n. c #744D3C",
"m. c #65523C",
"M. c #7F533F",
"N. c #4F4243",
"B. c #544541",
"V. c #574A42",
"C. c #564A4C",
"Z. c #5B4E49",
"A. c #5D4952",
"S. c #624C40",
"D. c #654E43",
"F. c #614E44",
"G. c #654B4E",
"H. c #655245",
"J. c #6F5D45",
"K. c #6C574B",
"L. c #6D594E",
"P. c #755643",
"I. c #715244",
"U. c #755445",
"Y. c #735E45",
"T. c #755148",
"R. c #705649",
"E. c #6A5A52",
"W. c #735C51",
"Q. c #795E51",
"!. c #776048",
"~. c #79624B",
"^. c #7A6155",
"/. c #77665C",
"(. c #7E685D",
"). c #725F6B",
"_. c #73606A",
"`. c #823802",
"'. c #8E3F0A",
"]. c #934206",
"[. c #964304",
"{. c #914405",
"}. c #9A4805",
"|. c #904109",
" X c #954408",
".X c #A24804",
"XX c #A14F0D",
"oX c #A5530F",
"OX c #AF5008",
"+X c #AE560E",
"@X c #B4540A",
"#X c #B35D0B",
"$X c #B35F0D",
"%X c #BA580C",
"&X c #A65610",
"*X c #A2571F",
"=X c #BA6211",
"-X c #BE6617",
";X c #8A4C24",
":X c #874A2C",
">X c #8E4E2A",
",X c #8A4E2F",
"<X c #8D4F2E",
"1X c #8E512F",
"2X c #94542F",
"3X c #9B572E",
"4X c #9D572F",
"5X c #824D34",
"6X c #884E30",
"7X c #835038",
"8X c #8D563C",
"9X c #935532",
"0X c #9B5730",
"qX c #9C5934",
"wX c #915738",
"eX c #965D3C",
"rX c #9D5E3A",
"tX c #AD492C",
"yX c #A15C32",
"uX c #A15F35",
"iX c #A8602E",
"pX c #A66136",
"aX c #A86135",
"sX c #AD6638",
"dX c #B66B3B",
"fX c #B2713F",
"gX c #C0660F",
"hX c #CC6E0E",
"jX c #CD700D",
"kX c #805B53",
"lX c #8C5E56",
"zX c #856353",
"xX c #826A5E",
"cX c #846B5E",
"vX c #8F6E5D",
"bX c #87745B",
"nX c #B06242",
"mX c #876F63",
"MX c #896F63",
"NX c #8A7266",
"BX c #957D71",
"VX c #987F72",
"CX c #E08013",
"ZX c #B88054",
"AX c #9D8579",
"SX c #A38A7E",
"DX c #8A7281",
"FX c #96808F",
"GX c #9E8594",
"HX c #A88F82",
"JX c #AA9084",
"KX c #B09588",
"LX c #B3988C",
"PX c #CBB1A1",
"IX c #EBCEBF",
/* pixels */
"                                                                ",
"                                  kX                            ",
"                                G.nXtX                          ",
"                              U g.L o.N                         ",
"                              ^ fXZXT.w.                        ",
"                              ' ;X*XiX'.                        ",
"                            ~ [ $X%X.X@X] 2                     ",
"                        G  X[ #XCXOX[ hX].x :.*.                ",
"                      N.(  X|.gXjX[.b }.{.e 1.F.i.              ",
"            ).      C.>.~ { ) +X=XE v ; P.mXx.4.3.z.            ",
"        _.A.k         f C ~ Q -X} E n <.xXuX3X>X9.8.|           ",
"      FX:.k k         q = C / XXR `.c SXeXsX4XyX .T 5.|         ",
"  GXDXk k k         % 6 d z D _ ~ _ &.AXpXyX0X2XR.W.D.I f.      ",
"    ;.l   8         0 q j y : B R ! c.NXdX0XqXx.H.AXJXp.T I.    ",
"                bXs.h $ j j y z m P l.MXaXpX2XzXL.KXIX(.H n.    ",
"            l.H.#.h i   $ =.d B.lXq.-.KXsXpX<XM.^.JXLXE.H 6.    ",
"            m.i i       % q a 3 X.@.y PXk.uX:X6XzXW.cXS.A 7.    ",
"              i         K r v E D V z NXvX9X1XqXwXU.R.Y 4.f.    ",
"                      H 0.2.`  XW E z O.HXb.,X9XrXj.j.5X7Xn.    ",
"                      2 J 2 oX].D ! - 6 H.VXh.j.rX5X8X8X7XQ.    ",
"                      2.| M &X! z = $ 6 6 K.BXc.5X5X5Xv.Q.      ",
"                    0 u K , J % X 6 % % $ $ -.NXNX^.W.(.        ",
"                    O.i O.+.Y.6 . 0 0 p 0 & @ $ ..,.            ",
"                  h O.e.m.!.t.o X w u.O.p O.w $ @ O             ",
"                + H $.e.s.t.s.o O o m.u.J.$.t M * #             ",
"                  > 2 H d.y.~.@ # # y.O.%.J F M :               ",
"                    > 1 Z J S   @ @ < | J M 3 > 4 7             ",
"                    B.5 & 9           J     d i y 5             ",
"                r.E.g 5 i p                 a.V.s i             ",
"                  d                       Z.E./.q               ",
"                                          s s a                 ",
"                                                                "
};
