/* XPM */
static char *e32a28239fde444ec79f19a3f4f117ec[] = {
/* columns rows colors chars-per-pixel */
"128 128 12 1 ",
"  c #2B2927",
". c #292928",
"X c #2A2828",
"o c #2A2928",
"O c #2B2928",
"+ c #2A2929",
"@ c #2B2929",
"# c #2A2A28",
"$ c #2B2A28",
"% c #2A2A29",
"& c #2B2A29",
"* c None",
/* pixels */
"********************************************************OO%O%&O%&O%&O%$O********************************************************",
"**************************************************%OO%&%&&&&&&&&&&&&&&&&%O%O%%**************************************************",
"**********************************************&%&&&&&&&&&&&%&&&%&&&&%&&&&&&&&&&&%&**********************************************",
"*******************************************&&&&&&&&&&&&&&&&O%%&OO&%%O&&%&&&&&&&&&&&&&*******************************************",
"****************************************OO&&&&%&&&&%O%********************%O&&&&%&&&&&OO****************************************",
"**************************************%&%%&&&&%O&******************************&O%&&&&&&&&**************************************",
"************************************%%&&&&&&OO************************************%O&&&&&&&O************************************",
"**********************************%&&&&&&&&******************************************O&%&&&&O%**********************************",
"********************************O&&&&&&&************************************************OO&&&&&&********************************",
"******************************OO&&&&&O****************************************************O&&&&&OO******************************",
"*****************************OOO&&&O********************************************************&&%&&&O*****************************",
"***************************O&%OO&O************************************************************O%&&&OO***************************",
"**************************&&&&&&O**************************************************************O&&&&&&**************************",
"*************************O&&&&&******************************************************************&&&&&O*************************",
"***********************&%&&&%%********************************************************************%%&&&&O***********************",
"**********************O&&&&&************************************************************************&&&&&&**********************",
"*********************O%&&&&**************************************************************************%&&&&%*********************",
"********************&&&&%O****************************************************************************%&&&&&********************",
"*******************&&&&%********************************************************************************&&&&%*******************",
"******************&&&&&**********************************************************************************&&&&&******************",
"*****************&&&&%************************************************************************************OO&&&*****************",
"****************&&&&%**************************************************************************************O&&&O****************",
"***************%&&&O****************************************************************************************&&&&&***************",
"**************&&&&&******************************************************************************************&&&&%**************",
"**************&&&&*************O&&&OOOOO&&OO&&&&&&&&&&&&&&&O%O**************OOO%******************************&&&&**************",
"*************O&&&O*******&%%&&&&&&&&OO&&&%%&&&&&&&&&&&&&&&&&%%&&OO%********OO****%OO%*************************%&&%O*************",
"************O&&&%*******&&&O&&&&&&&&&&&&&&&&&&&&&&&&&&&&&&&&&&&&&&%%O******O*********%%OO&*********************%&&&&************",
"***********&%&&&**********OOO&&&&&&&&&&&&&&&&&%%&&&&&&&&&&&&&&&&&&&&OOO***%***************%%%O******************&&&%O***********",
"***********%&&%***************O&&&&&&&&&&&&&OO%O@&&%&&OO&&&&&&&&&&&&&&&O*O*********************%*****************&&&%***********",
"**********O%&&%****************%%%&&&&&&&&&&O*************O%&&&&&&&&&&&&%***********************O****************O&&%%**********",
"*********%&&&&******************OO&&&&&&&&&&****************%&&&&&&&&&&&%&&*********************O*****************&&&&O*********",
"*********O&&&*******************O&&&&&&&&&&&******************%%&&&&&&&&&&&*********************O******************&&&O*********",
"********&&O%&********************&&&&&&&&&&&*******************O&&&&&&&&&%%**********************%*****************&O%&&********",
"********&&OO*********************&&&&&&&&&%O********************$&&&&&&&%************************%******************O&&&********",
"*******%&&&**********************O&&&&&&&&&&*********************&&&&&&**************************%*******************&&&O*******",
"*******&&&&**********************&&&&&&&&&&&*O%OO%***************&&&&&*****%%O********************%******************&&&%*******",
"******O%%O***********************O&&&&&&&&&&%*****OOO&&**********&&&&O*%&&**&&********************&*******************%&&%******",
"******&&&O***********************O&&&&&&&&&&***********%OO%O*****&O&&&%&&&O&&&********************&*******************O%&&******",
"*****&&&&************************O%&&&&&&&%&****************%&OOO**O&&&&&&%&&&*********************&*******************O&&&*****",
"*****&&&%*************************&&&&&&&&%O********************%**O&&&&&&&&&&%********************&*******************O&&&*****",
"****O&&&**************************&&&&&&&&&O********************%O*O&&&&&&&&&&&********************O********************&&%%****",
"****O&&&**************************&&&&&&&&&&*********************O**&&&&&&&&&&&*********************&*******************&&OO****",
"****%%&&**************************&&&&&&&&&%*********************%**&&&&&&&&&&&*********************%*******************&&&&****",
"***&&&%**************************%&&&&&&&&&O*********************OO*&&&&&&&&&&&*********************%********************&&&O***",
"***&&&O**************************O%&&&&&&&%%**********************%*&&&&&&&&&&&**********************O*******************O&&%***",
"***&&&%**************************O&&&&&&&&&O**********************%*&&&&&&&&&&&**********************O*******************%&&%***",
"**&&&&***************************O&&&&&&&&%O**********************%O&&&&&&&&&&&**********************O********************O%&&**",
"**O&%O***************************&&&&&&&&&OO***********************%%&&&&&&&&&%*********************O*********************O&&%**",
"**&&&&***************************O&&&&&&&&&@***********************O&&&&&&&&&&%********************$%*********************&&&&**",
"**&&&****************************O&&&&&&&&&&***********************%&&&&&&&&&&&*******************O%***********************&&&**",
"*%%&&****************************%%&&&&&&&&&************************&&&&&&&&&&*******************OO************************&&&%*",
"*O%&&****************************O%&&&&&&&&%************************&&&&&&&&&%*******************O*************************%&&%*",
"*O&&O****************************&&&&&&&&&&%***********************OO%&&&&&&&*******************O**************************O&&O*",
"*&&&%*****************************&&&&&&&&&%***********************&&&&&&&&&&******************O***************************%&&%*",
"*%&&******************************&&&&&&&&%%***********************&&&&&&&&&O*****************%*****************************&&&*",
"*&&%******************************&&&&&&&&&%***********************%&&&&&&&%*****************O******************************&&&*",
"O&&&******************************&&&&&&&&&%**********************&&&&&&&&&*****************%*******************************%&&O",
"O%&&******************************&&&&&&&&&%**********************&&&&&&&&%O&**************&********************************&&%O",
"&&&&******************************&&&&&&&&&O*********************O&&&&&&&&**%O&O&*********&*********************************&&&&",
"O&%O******************************&&&&&&&&%O********************%O&&&&&&&*******%&%OOO***O&*********************************O&%O",
"%&&%******************************&&&&&&&&&O*******************%%&&&&&&&*************OO%OO**********************************%&&&",
"&&%O******************************&&&&&&&&&&*****************O&&&&&&&&&******************O**********************************%%&&",
"O&&&******************************&&&&&&&&&&***************%%&&&&&&&%&*******************%**********************************&&&O",
"%&&%******************************&&&&&&&&&&OOO*********OO%&&&&&&&&&%********************%**********************************O&&%",
"&&&&******************************&&&&&&&&&&&&&&&&&&&&&&&&&&&&&&&&&&**********************%*********************************OO%&",
"O&&O******************************&&&&&&&&&&&&&&&&&&&&&&&&&&&&&&&&&&O*********************%*********************************OO%O",
"&&&&******************************&&&&&&&&O&&&&&&&O%&&%&&&&&&&&&&&&&&O********************&*********************************%&&&",
"&&OO******************************&&&&&&&&OOO&&&&&OO&&OO&%&&&&&&&&&&&&*********************&********************************%&&&",
"O%%O******************************&&&&&&&&&OO%*************&&&&&&&&&&&&********************&********************************O&&O",
"%%%%******************************&&&&&&&&%%**%%&&O*******OO&&&&&&&&&&&%*******************&********************************%&&%",
"&&&&******************************&&&&&&&&%%*******OO%O&*&O*O%&&&&&&&&&&O*******************&*******************************&&&&",
"O&&&******************************&&&&&&&&&%************&%***&&&&&&&&&&&O*******************&*******************************&%OO",
"*O&&******************************&&&&&&&&&%*************OO**O%&&&&&&&&&%O******************&%******************************%&&*",
"*&&&*****************************&&&&&&&&&&O**************O****%******%%&%O*****************&%******************************&&&*",
"*&&&%***************************O%&&&&&&&&%%**************%***********OO&&O*****************&&O****************************%&&&*",
"*O&&O**************************&%*&&&&&&&&&%**************%O****OO&&**&&&&%%****************&&&****************************O&%O*",
"*%&&&*************************O%**&&&&&&&&&O***************O****O%&&%*&&&&&&***************&&&&****************************&&&%*",
"*%&&&*************************%***&&&&&&&&&%***************O*****%&&&&&&&&&&&**************&&&&****************************&&&%*",
"**&&&************************%****&&&&&&&&&O***************%&****%&&&&&&&&&&&%*************&&&&****************************&&&**",
"**&&&%**********************&****&&&&&&&&&&O****************O*****%&&&&&&&&&&&O***********O&&&&***************************&&&&**",
"**%&&O*********************O*****&&&&&&&&&&O****************%******O%&&&&&&&&&&***********O&&&&***************************O%&O**",
"**&&&&********************O******&&&&&&&&&%O****************OO******&&&&&&&&&&%O*********$O%&&&***************************&&&&**",
"***&&&O*******************%******@&&&&&&&&&&*****************&******&&&&&&&&&&&&O*******&&&&&&O**************************%%&%***",
"***&%%O*******************%******%&&&&&&&&&%*****************&*******&&&&&&&&&&&%&*****&&&&&&&%**************************O&&&***",
"***&&&&********************%*****O&&&&&&&&&&*****************&&*******OO&&&&&&&&&&O***OO&&&&&%***************************&&%O***",
"****&&&&*******************%*****%&&&&&&&&&&******************%********O&&&&&&&&&%O**&&%&&&&&O**************************&&&O****",
"****O%%&*******************O*****&&&&&&&&&&&%*****************&********O&&&&&&&&&&&&*&&&&&&&&***************************&&&$****",
"****OO&&********************O***O%&&&&&&&&&%O*****************O%********&&&&&&&&&&&&&*&&&&&&%***************************&&%%****",
"*****&&&%*******************&***O&&&&&&&&&&&&******************O*********O%%&&&&&&&&&&&%&&&&***************************%&&&*****",
"*****&&&%*******************%**O%&&&&&&&&&&&&******************OO%%*******O&&&&&&&&&&&&O&&O****************************&&&&*****",
"******&&&O*******************&&&&&&&&&&&&&&&******************O****OO%O****%&&&&&&&&&&&&%%****************************O%&%******",
"******%&&&*******************&&&&&&&&&&&&&&******************%**********OO&&&&&&&&&&&&&&%*****************************&&&O******",
"*******%&&O***************O%&&&&&&&&&&&&&&%O&&&&%%**********$$**************O%&&&&&&&&&&&&***************************O%&&*******",
"*******O&&%*************O%&&&&&&&&&&%O&&&%%O&&&&&&&&********&****************&%%&&&&&&&&%O***************************O&&%*******",
"********&&&O************&&&&&&OOO&******OOOO&&&&&&%O*******&****************O%&O&&&&&&&&&O**************************$O&&********",
"********&&&%O*****************O***************************O****************O%&OO&&&&&&&&&O*%%O*********************&&&&&********",
"*********O%&&******************O*************************&****************&&&&&OO%&%&&&&&&&&&&&&*******************&&&O*********",
"*********%%&&&*****************%************************&****************O&&&&&&%O&%&&&&&&&&&&&&&&****************&&%O%*********",
"**********O&&&%****************%***********************&***************%&&&&&&&&%O*O&&&&&&&&&&&&&&&$*************%&&&O**********",
"***********%&&&*****************O*********************$&*************%O&&&&&&&%%%***O&&%&&&&&&&&&&&&%OOO*********&&&&***********",
"***********O&&&&****************%%OOO****************OO************&O&&&&&&&&&&%*****O****O%%%&&&&&%%&&*********&&&&&***********",
"************&&&&&********************O%O%%***********O*******&%%%&&&&&&&&&&&&O************O&O*O%&%OO***********&&&&%************",
"*************O&&&$************************&&&&$*****O**********O&&&&&&&&&&&&O***************O*****************O%&&O*************",
"**************&&&&******************************%OOO*************&&&&&&&&O%***********************************&&&&**************",
"**************&%&&&******************************************************************************************&&&%O**************",
"***************O&&&&****************************************************************************************&&&&%***************",
"****************O%&&O**************************************************************************************O&&&%****************",
"*****************&%%OO************************************************************************************O%&&&*****************",
"******************&&&&&**********************************************************************************O&&&&******************",
"*******************&&&&&********************************************************************************&%&&&*******************",
"********************&&&&&%****************************************************************************%&&&&&********************",
"*********************%&&&&%**************************************************************************&&&&&%*********************",
"**********************%&&&&&************************************************************************&&%O&%**********************",
"***********************&&&&&&%********************************************************************%&&&&O&***********************",
"*************************OO&&&&******************************************************************&&&&&O*************************",
"**************************%&&&&&O**************************************************************O&&&&&&**************************",
"***************************O&%&&&O************************************************************OO&&&&&***************************",
"*****************************O&&&&OO********************************************************&&&&&&O*****************************",
"******************************OO&&&&&O****************************************************O&&&&&OO******************************",
"********************************&&&&&%&%************************************************%&%&&&&&********************************",
"**********************************OO%%&&&&&******************************************O&&&&&%%O**********************************",
"************************************%&&&&&&&O%************************************%O&%&&&&&%************************************",
"**************************************&&&&&&%%&O%******************************%O%&&&&&%&&**************************************",
"****************************************$$&&&&&&&&&&O%********************OO&&&&&&&&&&O%****************************************",
"*******************************************O&&&%&&&&%&&&&&&O%O&%%&O%O%&&&&&&&&&&O%&&&*******************************************",
"**********************************************&O&&&%&&&&&&&&%&&&&&&%&%&&&&&%&&&&O&**********************************************",
"**************************************************%%O&&&O%&%&&%&&%&&OO&%&&&O%%**************************************************",
"********************************************************O&&O&&O&&O&&$&&O********************************************************"
};
