/* XPM */
static char *_3a5e384617247f3d1932b4f3d61eb90[] = {
/* columns rows colors chars-per-pixel */
"16 16 10 1 ",
"  c #2B2927",
". c #2A2928",
"X c #2B2928",
"o c #2A2929",
"O c #2B2929",
"+ c #2A2A28",
"@ c #2B2A28",
"# c #2A2A29",
"$ c #2B2A29",
"% c None",
/* pixels */
"%%%%%%%%%%%%%%%%",
"%%%%%%%%%%%%%%%%",
"%%+%%%%%%%%%%@%%",
"%%%%$OOOO%%%%%%%",
"%%%%+O%%+%%%%%%%",
"%%%%+%%%+@%%%%%%",
"%%%%O%%%++%%%%%%",
"%%%%O %%O%%%%%%%",
"%%%%+$$$+%%%%%%%",
"%%%%$%%%$+%%%%%%",
"%%%%$+%%%$%$%%%%",
"%%%o++%%%$$%%%%%",
"%%%%%%%%%$%$%%%%",
"%%+%%%%%%%%%%+%%",
"%%%%%%%%%%%%%%%%",
"%%%%%%%%%%%%%%%%"
};
