/* XPM */
static char *_f8613319d204567bf28860159a90fa9[] = {
/* columns rows colors chars-per-pixel */
"32 32 148 2 ",
"   c None",
".  c #691B14",
"X  c #721C16",
"o  c #781C17",
"O  c #732116",
"+  c #772917",
"@  c #7C2018",
"#  c #6B2923",
"$  c #7D3526",
"%  c #7F392A",
"&  c #83161A",
"*  c #8D181C",
"=  c #93191D",
"-  c #99191F",
";  c #86251A",
":  c #89241B",
">  c #8D2A1C",
",  c #92251D",
"<  c #98201E",
"1  c #912B1D",
"2  c #9D291F",
"3  c #95371D",
"4  c #963C1D",
"5  c #9C3B1F",
"6  c #A51F21",
"7  c #9E2A20",
"8  c #8B3D26",
"9  c #A12B20",
"0  c #A82922",
"q  c #B42525",
"w  c #BE2427",
"e  c #A33621",
"r  c #A53D20",
"t  c #AE3F23",
"y  c #B63624",
"u  c #BB3426",
"i  c #BF3E27",
"p  c #CC2D2A",
"a  c #D1272B",
"s  c #D32C2B",
"d  c #C43B27",
"f  c #C33028",
"g  c #CE342A",
"h  c #C73D28",
"j  c #D6362C",
"k  c #D63C2C",
"l  c #8B432E",
"z  c #8A4634",
"x  c #A14220",
"c  c #AA4E22",
"v  c #BC4326",
"b  c #B34C24",
"n  c #BE4A26",
"m  c #A6532F",
"M  c #AB552D",
"N  c #B45223",
"B  c #BB5425",
"V  c #BB5B26",
"C  c #B95F2F",
"Z  c #B1633D",
"A  c #C14927",
"S  c #CB4729",
"D  c #DA442C",
"F  c #D7482C",
"G  c #DC4C2D",
"H  c #C55427",
"J  c #C15B26",
"K  c #CB5528",
"L  c #C85928",
"P  c #D2552A",
"I  c #DD532D",
"U  c #D65B2B",
"Y  c #DA5C2C",
"T  c #E1542E",
"R  c #E25B2E",
"E  c #C2622B",
"W  c #CC6629",
"Q  c #DC652D",
"!  c #D46B29",
"~  c #DC6D2B",
"^  c #C16531",
"/  c #C76E3A",
"(  c #D06E30",
")  c #CD733C",
"_  c #E5632E",
"`  c #E76B2F",
"'  c #E96B2F",
"]  c #E3762E",
"[  c #EA742F",
"{  c #EC7A2F",
"}  c #EB6F30",
"|  c #ED7430",
" . c #EF7830",
".. c #F17B30",
"X. c #AF6441",
"o. c #BA734E",
"O. c #A46A55",
"+. c #A76F59",
"@. c #B07153",
"#. c #AF7961",
"$. c #B27D63",
"%. c #C47C53",
"&. c #EB8236",
"*. c #E9843D",
"=. c #EE893F",
"-. c #F48432",
";. c #F68A39",
":. c #BE8B6E",
">. c #DD8041",
",. c #CB865C",
"<. c #E08343",
"1. c #E68C4D",
"2. c #F68F41",
"3. c #F6954B",
"4. c #E89357",
"5. c #E5985F",
"6. c #EF9959",
"7. c #F79B54",
"8. c #F7A15E",
"9. c #F8A25E",
"0. c #C48C6A",
"q. c #D79A6F",
"w. c #D2A17E",
"e. c #EDA46C",
"r. c #F4A465",
"t. c #F9A867",
"y. c #F9A968",
"u. c #EEAC76",
"i. c #F5AC70",
"p. c #F9AF71",
"a. c #F9B072",
"s. c #F7B57C",
"d. c #F9B77C",
"f. c #FAB87D",
"g. c #DBAC86",
"h. c #E8B386",
"j. c #FABE86",
"k. c #F2BE8D",
"l. c #FAC088",
"z. c #FBC792",
"x. c #FBC894",
"c. c #F8CC9E",
"v. c #FACFA1",
"b. c #FBD0A1",
"n. c #FBD7AC",
"m. c #FBD9AE",
"M. c #FCDFB9",
"N. c #FCE0BB",
/* pixels */
"                          M.M.N.N.N.M.                          ",
"                    m.m.m.m.m.m.m.m.m.m.m.n.                    ",
"                b.b.b.c.w.$.+.O.O.#.:.g.v.b.b.b.                ",
"            z.x.x.h.O.#                   0.k.x.x.              ",
"          j.l.j.@.          j.j.j.j.          q.l.l.j.          ",
"        d.f.u.z         f.f.f.f.f.f.f.d.        ,.d.f.d.        ",
"      p.a.e.%       p.a.a.a.a.i.e.,.o.o.%.%.        p.a.        ",
"      y.t.l       y.y.y.r.X.$       r.r.            5.y.y.      ",
"    9.9.Z         9.9.4.8     9.9.9.9.9.9.9.r.        8.9.6.    ",
"    7.1.        7.7.7.8     7.7.7.7.7.7.7.7.7.7.7.      7.7.    ",
"  3.3.M     )   3.3./     3.3.3.<.m 8 8 m ) 3.3.3.3.    3.3.>.  ",
"  2.2.      ^   2.2.M   2.;.;.Z               ;.2.2.      2.*.  ",
"  ;.(     ;.E   ;.;.c   ;.;.E   ;.;.;.;.;.      ;.;.&.    ;.;.  ",
"-.-.V     -.W   -.-.V ;.;.-.+   E ] -.-.-.-.    -.-.-.    -.-.V ",
"-.-.N   -.-.!   -.-.~   -.W         c ] -...-.    -.-.J   -.-.J ",
"....c   ..-.]   ....{   ] J             { -...    ....J   -...J ",
"| ..N   ....[      .....  4         .. .  ....`   { ..N   .. .B ",
"| | B   | | |     [ | | |           | |   | | [   | | x   | | b ",
"| } L     } | Q     Q } } } ' [     } } b } | '   } '     ' } 5 ",
"  } U     ' ' '       H ` ' _ 3   ' ` `     ' '   ' b     ' '   ",
"  _ `       ` _ `         5 .   ` _ ` r   ` _ _   Y O     ` K   ",
"  _ R P     P R R _ _ R     R _ _ R n     R _ R         _ R r   ",
"    R R       A T R R R R T R R R t       R R x         R I     ",
"    T T T         v I T T T I v ;       T T G X       T T e     ",
"      G I             : 1 ;         I G I T >       G G S       ",
"        G G         i G G G G G G G G G D 1       G G F @       ",
"        h D D D         d D D D D D D y o       D D D :         ",
"          u k k k           2 9 7 , X         k k k ;           ",
"            0 j j j j                     j j j f o             ",
"                q s j s j s s s s s s j s j p -                 ",
"                    6 w a a s a a a a a q =                     ",
"                          * - - - = &                           "
};
