/* XPM */
static char *d66a6c65d79e40e28610c29766bc4412[] = {
/* columns rows colors chars-per-pixel */
"64 64 252 2 ",
"   c None",
".  c #0E0600",
"X  c #190A02",
"o  c #1D1209",
"O  c #1C1412",
"+  c #260D03",
"@  c #320E00",
"#  c #3B0C00",
"$  c #251409",
"%  c #331201",
"&  c #3A1402",
"*  c #311804",
"=  c #3D1903",
"-  c #33140A",
";  c #39160A",
":  c #35190D",
">  c #3C1A0B",
",  c #271B14",
"<  c #3A1611",
"1  c #321B12",
"2  c #3B1E11",
"3  c #3C200F",
"4  c #2D2219",
"5  c #35271A",
"6  c #39301D",
"7  c #2B2320",
"8  c #362924",
"9  c #3C3125",
"0  c #3C2932",
"q  c #3D3331",
"w  c #441300",
"e  c #4C1500",
"r  c #441900",
"t  c #4C1A00",
"y  c #42170D",
"u  c #431A0A",
"i  c #4B1D0C",
"p  c #531C00",
"a  c #5A1D00",
"s  c #421E12",
"d  c #611F00",
"f  c #4B210D",
"g  c #592201",
"h  c #452314",
"j  c #4B2413",
"k  c #4B2817",
"l  c #43241B",
"z  c #432A1C",
"x  c #4B2A1B",
"c  c #522513",
"v  c #542914",
"b  c #5A2913",
"n  c #502719",
"m  c #542B1A",
"M  c #592C1A",
"N  c #5B311D",
"B  c #672701",
"V  c #732C01",
"C  c #6E3206",
"Z  c #763001",
"A  c #7B3202",
"S  c #72330B",
"D  c #7C3309",
"F  c #602D14",
"G  c #622D1B",
"H  c #6B2E1A",
"J  c #663215",
"K  c #6A3315",
"L  c #63301B",
"P  c #6B341C",
"I  c #67391E",
"U  c #753C11",
"Y  c #70361C",
"T  c #723B1B",
"R  c #7A3E19",
"E  c #422C23",
"W  c #4C2C22",
"Q  c #502E21",
"!  c #463726",
"~  c #583727",
"^  c #412E35",
"/  c #433333",
"(  c #4C3334",
")  c #443836",
"_  c #4C3B34",
"`  c #443338",
"'  c #49363B",
"]  c #4A3B3C",
"[  c #513D32",
"{  c #5A3D30",
"}  c #573C3D",
"|  c #712D27",
" . c #653321",
".. c #6C3624",
"X. c #653A24",
"o. c #6C3A23",
"O. c #65372C",
"+. c #623D2C",
"@. c #6B3D2A",
"#. c #733B23",
"$. c #783B23",
"%. c #733D2C",
"&. c #793D2A",
"*. c #4E402D",
"=. c #51412E",
"-. c #4C4036",
";. c #594636",
":. c #6C402B",
">. c #774229",
",. c #644939",
"<. c #7A4933",
"1. c #65533C",
"2. c #4C3C40",
"3. c #553E44",
"4. c #553F49",
"5. c #4C4042",
"6. c #514544",
"7. c #594342",
"8. c #574A46",
"9. c #5D4A40",
"0. c #534648",
"q. c #5F444A",
"w. c #5A4C4A",
"e. c #5B4C51",
"r. c #5E5254",
"t. c #624D43",
"y. c #6A4E41",
"u. c #624B4C",
"i. c #764D46",
"p. c #6A5747",
"a. c #725947",
"s. c #605352",
"d. c #655853",
"f. c #63535A",
"g. c #64595C",
"h. c #6B5D5A",
"j. c #745D51",
"k. c #78644B",
"l. c #6F6159",
"z. c #796358",
"x. c #685660",
"c. c #6C5A64",
"v. c #6F5F69",
"b. c #725D67",
"n. c #776761",
"m. c #7C6764",
"M. c #7A6A62",
"N. c #71626A",
"B. c #7C6B76",
"V. c #853803",
"C. c #913D02",
"Z. c #83251D",
"A. c #89311A",
"S. c #AC261B",
"D. c #B23D26",
"F. c #8E4109",
"G. c #974608",
"H. c #8F4B1B",
"J. c #A64904",
"K. c #AA530C",
"L. c #B7580A",
"P. c #A75611",
"I. c #B45C11",
"U. c #BC660D",
"Y. c #BD6515",
"T. c #824425",
"R. c #854925",
"E. c #80452A",
"W. c #83492A",
"Q. c #8A4B2A",
"!. c #914F2B",
"~. c #9E482A",
"^. c #905027",
"/. c #93522D",
"(. c #9A5A2F",
"). c #834D32",
"_. c #8A4C30",
"`. c #8A5339",
"'. c #995935",
"]. c #A4492C",
"[. c #AB5635",
"{. c #A15C33",
"}. c #A05E39",
"|. c #A46134",
" X c #A96134",
".X c #A4613A",
"XX c #AB6438",
"oX c #B46A3A",
"OX c #BE723F",
"+X c #C76A0C",
"@X c #D3740E",
"#X c #C76A15",
"$X c #CB7019",
"%X c #D67711",
"&X c #C0733F",
"*X c #895D4B",
"=X c #945C41",
"-X c #8D654A",
";X c #81694F",
":X c #906246",
">X c #9D644A",
",X c #826A59",
"<X c #92635B",
"1X c #8B755A",
"2X c #A4704E",
"3X c #B07347",
"4X c #836D61",
"5X c #8A7468",
"6X c #937B6A",
"7X c #826D7A",
"8X c #8C7773",
"9X c #947D72",
"0X c #D56E46",
"qX c #C77843",
"wX c #D17F47",
"eX c #E58612",
"rX c #F39116",
"tX c #BF8157",
"yX c #9C8467",
"uX c #9B8277",
"iX c #A28A7D",
"pX c #D68249",
"aX c #C78555",
"sX c #CF8E59",
"dX c #D8895D",
"fX c #DE9657",
"gX c #DF9B5E",
"hX c #887885",
"jX c #957E8C",
"kX c #968593",
"lX c #A58C81",
"zX c #AC9286",
"xX c #B3988C",
"cX c #A08999",
"vX c #B99E91",
"bX c #BDA395",
"nX c #A48FA2",
"mX c #A490A0",
"MX c #B29AAC",
"NX c #BBABBF",
"BX c #C4A99C",
"VX c #CAAEA0",
"CX c #CCB1A3",
"ZX c #D5B9AA",
"AX c #DDC1B1",
"SX c #E4C8B8",
"DX c #C5AEC4",
"FX c #D7BCD4",
"GX c #EDD0C0",
"HX c #F5D7C8",
"JX c #E2C4DE",
"KX c #EBCCE8",
/* pixels */
"                                                                                                                                ",
"                                                                                                                                ",
"                                                                  N.c.=XW                                                       ",
"                                                              ] N.cXc.=X>XE                                                     ",
"                                                              s.v.c.>X~.D.A.l                                                   ",
"                                                            ] e.} O.dX[.0X].$.                                                  ",
"                                                            W E._.G P j l < & e                                                 ",
"                                                            H # T ^.i y q.( x b                                                 ",
"                                                            i a (.3X-X2Xu.3.|.R                                                 ",
"                                                          p H.D |.fXgXsX*X:XK K                                                 ",
"                                                          A S V.R.qXoXR.tXaXV.p B                                               ",
"                                                        V.V.V V B R G.L.G.V.L.J.B B                                             ",
"                                                      V V a V.V p +X#XL.J.G.I.J.A V w $ '                                       ",
"                                                  $ V.V B V V.B %X%XL.J.J.G.L.J.J.a p 8 / f.]                                   ",
"                                              0., S G.V.A B V.U.rX#XI.J.C.C.@XL.L.B a 1 2.N.0./                                 ",
"                                            hX] , G.G.K.V G.G.rXeX%XL.J.B B @X+X+XV p % , / / 8 /                               ",
"                                          B.g./ t V.K.G.G.G.I.%X+XeXJ.G.t t C.@X+XB % + $ , 4 , $ X                             ",
"                                          r.e.8 a G.V.G.G.Z $XL.+X+XK.B t w B J.L.g 1 ;.z.4X6X9X9X4X[                           ",
"                      hXhXhX            6.e.f.8 p V.A V.V.B #XC.%XK.V.a p w % B C [ 4XuX5Xt.5 h x ! a.5X                        ",
"                  f.kXmXc.^ ^         kXf.5.e.8 p V.V V.V V #XG.#XP.p a p r + $ j.iXxX! h R.{.>.Q.$.v v y.4X                    ",
"              nXb.x.kX3.0 0 0           NX` ] 7 w A B V.B B Y.Y.#Xp p B B % + ;.z.9XN oX'.{./.>.>.$.P >.P x ,X                  ",
"            B.b.7Xb.` ^ 0 0 0 '           B.8 4 & B B V V B I.$XV.p V V g % 8 9XxXz &XoXT. X'.Q.P $.#.#.#.M m ,X                ",
"          DXDXMXe.' 0 0 0 0 0 '           ` 2., @ e a B V.d G.Y.g B G.Z t % z.zXz.'.'.qX XQ. X/.P $.$.L #.o.M ~ 4X              ",
"        FXFXjX] ' 0 0 0 0 0               X $ $ + w e p V.a A P.p B G.B f 5 lXbX>.qX>.pXoXT.oX'.L L m x N o.N o.~ 4X            ",
"    FXKXJXB.0 0 ^ 0 0 0 0               $ o X 5 ) @ w w B g B G.a A V.B t ;.zX9X>.pXP wXXXT. X X~ p.z.z.p.~  .M %.,.            ",
"    / b.7X` 0 0 0 0 0 0                 , $ X 9 w.$ : # t a B V Z B V.g r z.bXa.#.qXT.qX!.oXT.>.5Xp.;.j.p.t.! h @.X.4X          ",
"      8 w.0 0 0 0 ^ 8 $               5 , $ o 4 g.8 4 $ % t e a Z g V.g & uXbX;.oXoX'././.oXP p.t.9.uX6XzX4X;.z m >.,.          ",
"        8 ' ^ 0 ^   , 5 5         p.p.p.! $ o w.8 , / , , & e e e B B g t uXBX~ qX XOX#.|.!.v 9X;.z.uXxXCXzXz._ > @.@.4X        ",
"        , / 0         ,.~         6Xk.p.-.4 X 9 8 9 9 , 5 $ w a # t B t % uXVX~ oX{.qXT.|.T. .lX[ 4X9XBXSXHXuX;.l c >.j.        ",
"                      ~ *X,.  1XyXk.;.9 9 8 X o / 8 h.4 ] $ $ p # Q y.> % 9XzX;.|.{.OX/.'./.o.iX;.5XlXbXSXGXiX9.! = <.,.j.      ",
"                        *X<.! p.;.! 5 ! 9 5 X o $ $ 9 0.8 q , m.5X<X| u.$ p.AX,XoXoXXX|.W.{.>.5Xz.j.zXxXvXvX4X9.! & >.+.4X      ",
"                        5 p.5X;.! 9 ! 5 4 4   o o $ 5.5 4 9 4 8X9XZ.S.t.5 z.SX,X'.oX{.XX#.'.E.a.iX[ uXzXzXzX4X;.W & ~ @.z.      ",
"                      yX;.1X*.5 ! 5 5 4 ,       $ 4 , 6.) / 5 5 E ,Xi.p.5 ;.CXZXI |.{..X#.'.Q.>.,Xa.;.iXzXzXj.;.h r ~ :.z.      ",
"                      1.=.;.! X $ 4             o o o o , $ t & & - 5 $ $ 4 vXZX,.W.'..XE.`.'._.<.iX4X;.,.;.[ t.> c >.@.z.      ",
"                        5 8 8 o                 2 $ , $ > a B B g t p & = & 4XxXzXP '.{.'.>.'.'.'.,.6XuX5X4X,.z v o.<.~ z.      ",
"                          9 ! 5 5             h L  .M c @ a V B V B B t t r E zXCX~ W.'.XX>.'.'..X'.N k { ~ j v o.).<.~ 4X      ",
"                            9 5 ~         X X G ..#.&.m % V.F.G.V B V g p % $ 4XzXxXN '.'.>.'.'..X'.<.>.#.o.>.<.<.`.<.,.z.      ",
"                                a.{       X 5 W ..%.&.n B G.K.V.B g V.r p + , 8 9XzXz.>.'.>.>.}..X'.).>.`.`.`.`.`.`.<.j.p.      ",
"                                  7.4.    X + s M %.&.+ G.K.G.V.V p V.g r + 4 , t.9XxXa.W.>.N '..X'.`.>.`.`.`.`.`.`.+.4X        ",
"                                  f.      , j > ; + ; X K.I.J.V.a p g g t + , , $ z.9XzXy.N m '.'.'.`.<.`.'.`.=X=X+.5Xj.        ",
"                                          5 M c m M M + P.I.G.B # p t r + $ , , , , z.9XlXa.2 W.).'.'.<.`.`.'.`.+.,X6X          ",
"                                          h &.#. .#.j & P.G.B + t @ @ X o $ , , $ $ $ z.9XlXuX,.~ ).`.<.<.>.:.~ j.5Xp.          ",
"                                        9 , o s  .>.> & C % $ o X X o , , $ , $ $ $ $ $ ;.5X5XzXuXj.;.W E ;.p.5X4Xp.            ",
"                                        , , ! 9 o $ 5 - 1 ! ! X . X 4 5 4 $ $ $ $ , $ $ + 5 p.z.5X6XuXlXiX5X4Xz.t.              ",
"                                      ! 5 5 4 5 ! ,.;.! k.a.! X X . o $ $ , 5 4 $ , , , $ X + 5 ;.p.z.z.z.,Xt.                  ",
"                                    , 5 *.;.5 ! 5 5 5 =.1.k.5 X X . $ ! 5 4 =.! 9 $ , $ $ $ $ + X $ $ 1 5                       ",
"                                    4 4 9 ;.5 p.a.! a.;.5 9 o X X X X 1.;.;.! ;.5 $ 5 5 5 $ $ $ X X + $ X                       ",
"                                u j 9 ;.5 9 5 1.;X;.1X,X1.k.o X X X X 5 1.! 5 ! ;.5 ;.! ! 5 $ $ + % $ + X                       ",
"                                + > j 5 ! p.1.4 9 5 =.=.1.1.o X X X X X ;.! =.a.p.,.! p.;.5 + > f $ + $ +                       ",
"                                - + - f h ! ;.=.,X,X;.;.,.! X + $ $ + X p.,X5 k.k.k.! z $ ; J f $ X = + $                       ",
"                                  ; - + - b j x ;.k.! 6XyXp.X $ $ $ $ $ 5 yX! p.1.! $ i T J % X g + +                           ",
"                                    + 2 - s + f F v 3 ,.k.;.X $ * $ $ * X p.5 $ > P P j + > U g + ; $                           ",
"                                        > - ~ + $ > f K J f $ $ % $ $ * + c Y P b + f + J X & - - o , 7                         ",
"                                        + $ - + j x > h - u     X X X $ X F > :.v M T + > > 1 $ O O , ,                         ",
"                                      s.8., o $ - ; X.- h u                 c m + > ; 1 , , 4 4 4 4 , 4                         ",
"                                  s.s.s.d.d., 5 4 o $ :                     f -       5 ;.! 9 5 5 5 , ,                         ",
"                                6.h.n.5Xp.8 , , 6 4 6 6                               ! ! ! 8 4 , O 4 6                         ",
"                                8 9 w._ , , , O 5 4 5                                 d.d.h.M.M.z., 5 6                         ",
"                                8 7 8 8 , , 5 5                                   -.l.4X5XiXbX9X8 4 4 5                         ",
"                                    E E                                           8 q / ) q ] / 4 4 ,                           ",
"                                                                                  8 8 9 q 9 q 8 4 ,                             ",
"                                                                                  9 8 , , 7 7 , 4                               ",
"                                                                                                                                ",
"                                                                                                                                "
};
