/* XPM */
static char *_bedc99e61ed4a8ffb1c5396b6046528[] = {
/* columns rows colors chars-per-pixel */
"64 64 199 2 ",
"   c None",
".  c #530E0F",
"X  c #560F10",
"o  c #590F10",
"O  c #561110",
"+  c #5B1311",
"@  c #5E1816",
"#  c #631512",
"$  c #6D1515",
"%  c #641A13",
"&  c #6B1B14",
"*  c #751617",
"=  c #731B16",
"-  c #7B1A18",
";  c #6E251B",
":  c #6A241B",
">  c #792117",
",  c #7C2518",
"<  c #762A1A",
"1  c #7C2B18",
"2  c #732517",
"3  c #7F321E",
"4  c #6C2A23",
"5  c #692620",
"6  c #722C21",
"7  c #7D3728",
"8  c #8A191B",
"9  c #911C1D",
"0  c #981E1E",
"q  c #822519",
"w  c #8A231B",
"e  c #842D19",
"r  c #8B2C1B",
"t  c #92251D",
"y  c #962E1D",
"u  c #84331B",
"i  c #8B331B",
"p  c #8E391B",
"a  c #9A341F",
"s  c #953E1D",
"d  c #9C3C1F",
"f  c #93351D",
"g  c #9D1A20",
"h  c #AA1D22",
"j  c #B81F26",
"k  c #813A29",
"l  c #8A3B23",
"z  c #933F20",
"x  c #AD2323",
"c  c #A82D22",
"v  c #BD2226",
"b  c #B42A25",
"n  c #A43521",
"m  c #A23C20",
"M  c #AE3D23",
"N  c #AC3323",
"B  c #B23224",
"V  c #BB3A26",
"C  c #BA3725",
"Z  c #C52028",
"A  c #CA2329",
"S  c #CC2A2A",
"D  c #C72D28",
"F  c #D2262B",
"G  c #D32B2B",
"H  c #C43A28",
"J  c #CD3B2A",
"K  c #C63628",
"L  c #D5332C",
"P  c #D73D2C",
"I  c #98411F",
"U  c #A1461F",
"Y  c #93452A",
"T  c #9A4625",
"R  c #824336",
"E  c #924C36",
"W  c #9B5338",
"Q  c #A44221",
"!  c #AA4622",
"~  c #B44424",
"^  c #B54C24",
"/  c #BD4926",
"(  c #BD4226",
")  c #A95229",
"_  c #B35424",
"`  c #BD5226",
"'  c #BC5B26",
"]  c #B75C2C",
"[  c #AD5931",
"{  c #A95630",
"}  c #B45E32",
"|  c #BF612D",
" . c #B7653B",
".. c #C54428",
"X. c #CD422A",
"o. c #CA4D29",
"O. c #C34B27",
"+. c #D4412B",
"@. c #DA442C",
"#. c #D34E2B",
"$. c #DC4B2D",
"%. c #C65227",
"&. c #C35C27",
"*. c #CC5C29",
"=. c #CA5629",
"-. c #D4552B",
";. c #DF522D",
":. c #D55C2B",
">. c #DB5C2C",
",. c #E1552E",
"<. c #E35B2E",
"1. c #CD6428",
"2. c #C8662B",
"3. c #DC642C",
"4. c #D46C2A",
"5. c #DF6C2D",
"6. c #D4642A",
"7. c #DF722C",
"8. c #CC6F36",
"9. c #C46934",
"0. c #D26F31",
"q. c #CD743E",
"w. c #D4773D",
"e. c #D37335",
"r. c #E6632E",
"t. c #E56B2E",
"y. c #E96B2F",
"u. c #E2732D",
"i. c #EA742F",
"p. c #EC7A2F",
"a. c #F07A2F",
"s. c #EB6F30",
"d. c #ED7330",
"f. c #EC7C32",
"g. c #E47D35",
"h. c #F27D30",
"j. c #925543",
"k. c #9E5D44",
"l. c #AA6749",
"z. c #BD6E44",
"x. c #AD7258",
"c. c #CD7946",
"v. c #C1784F",
"b. c #D17942",
"n. c #C47D55",
"m. c #F1802F",
"M. c #E8833C",
"N. c #F58432",
"B. c #F58937",
"V. c #F68C3D",
"C. c #BF8D70",
"Z. c #BD886A",
"A. c #CB8559",
"S. c #D48A59",
"D. c #DD8F5A",
"F. c #EC8D47",
"G. c #F08E46",
"H. c #F69044",
"J. c #F6944B",
"K. c #E28D51",
"L. c #E09159",
"P. c #F79B54",
"I. c #F19550",
"U. c #F4A15F",
"Y. c #F8A05C",
"T. c #C68B66",
"R. c #DB9B6C",
"E. c #C18E71",
"W. c #C99879",
"Q. c #D59F79",
"!. c #EE9E60",
"~. c #EDA369",
"^. c #EFA86F",
"/. c #F8A563",
"(. c #F5A96C",
"). c #F9AB6B",
"_. c #F1A061",
"`. c #EFAC74",
"'. c #F9AE70",
"]. c #EDB17F",
"[. c #FAB275",
"{. c #F9B67A",
"}. c #FABA7F",
"|. c #F5B57D",
" X c #DAA882",
".X c #E0B38D",
"XX c #FABC82",
"oX c #EBBD93",
"OX c #FBC28B",
"+X c #F6C08D",
"@X c #FBC691",
"#X c #FBCA97",
"$X c #FBCE9E",
"%X c #F5C798",
"&X c #F9CFA2",
"*X c #FCD2A5",
"=X c #FBD6AB",
"-X c #FCDBB2",
";X c #FCDFB9",
/* pixels */
"                                                                                                                                ",
"                                                ;X;X;X;X;X;X;X;X;X;X;X;X;X;X;X;X                                                ",
"                                          -X-X-X-X-X-X-X-X-X-X-X-X-X-X-X-X-X-X-X-X-X-X                                          ",
"                                    =X=X=X=X=X=X=X=X=X=X=X=X=X=X=X=X=X=X=X=X=X=X=X=X=X=X=X                                      ",
"                                *X*X*X*X*X*X*X*X*X*X=X%X.X XE.E.E.W. XoX*X&X*X*X*X*X*X*X*X*X*X                                  ",
"                              $X$X$X$X$X$X$X$XoXZ.j.4 + . .           O : R x.Q.%X&X&X&X$X$X$X$X$X                              ",
"                          #X#X#X#X$X#X$X@XE.R O X                               4 l. X#X#X#X$X#X#X#X                            ",
"                        @X@X@X@X@X@XOXx.: .                                           W Q.@X@X@X@X@X@X@X                        ",
"                      OXOXOXOXOXOXT.4 O                                                   k..XOXOXOXOXOXOX                      ",
"                    XXXXOXXXXX].E O                   XXXXXXOXXXXXXXXXOXXX                    A.XXXXXXXXXXXX                    ",
"                  XX}.}.XXXXR.4                 XX}.}.}.XXXXXXXXXXXXXXXX}.XXXX                  x.|.XX}.XXXXXX                  ",
"                {.{.{.{.{.A.@               {.{.{.{.{.{.{.{.{.{.{.{.{.{.{.{.{.{.{.                k.`.{.{.{.{.{.                ",
"              [.[.[.[.[.n.+               [.[.[.[.[.[.[.[.[.[.[.[.[.[.[.[.[.{.[.[.[.[.                ^.{.[.[.[.                ",
"            [.).'.).[.A.+               ).[.).[.'.'.'.'.).[.(.~.!.S.l.E k 6 6 6 k E l.v.                (.'.'.'.'.              ",
"            ).).).).D.@               ).).).).).).).).S.W 6 + O X X                                       ).).).).).            ",
"          /./.(./.!.;               /.)./././././.D.k X             (././././././././.                    L././././._.          ",
"          /./.Y./.Y                 /./.Y./././.z.+             /././././././././././././.                  _././.Y./.          ",
"        Y.Y.Y.Y.c.O               Y./.P.Y.Y.P. .O           Y.Y.P./.P.Y.Y.Y.P.Y.P.Y.Y.P.P.Y.Y.                Y.Y.Y.Y.K.        ",
"      P.P.P.P.P.;                 P.P.P.Y.P.c.+         P.P.P.P.P.P.P.P.P.P.P.P.P.Y.P.P.P.Y.P.P.P.            P.P.P.P.P.        ",
"      P.P.P.P. .                P.P.P.P.P.I.;         P.P.P.P.P.P.P.P.P.P.P.P.P.P.P.P.P.P.P.P.P.P.P.            P.P.P.P.b.      ",
"      J.J.J.J.:                 J.J.J.J.J.}         J.J.J.J.J.J.J.J.J.c.{ Y z Y [ b.J.J.J.J.J.J.J.J.J.          J.J.J.J.F.      ",
"    J.J.J.J.9..         J.T     J.J.J.H.J.<       J.J.J.J.J.J.J.G.{ # .             ; [ H.J.J.J.J.J.H.J.          J.J.H.J.}     ",
"    H.H.H.H.l           H.l   H.H.H.H.H.F.O       H.H.H.H.H.H.8.% X                     u w.H.H.H.H.H.H.          J.H.H.H.8.    ",
"    V.H.V.M.+         V.V.<   V.V.H.G.V.2.      V.H.V.V.H.V.| O       V.V.H.V.              e.V.V.V.H.V.H.          H.V.V.M.    ",
"  V.V.V.B.|         B.V.V.2   V.V.V.V.V.]     B.V.V.V.B.B.9.+     V.B.B.V.V.B.V.V.            M.B.B.V.V.V.0.        V.B.V.B.T   ",
"  B.B.B.B.I         B.V.V.&   B.B.B.B.N._     B.V.B.B.B.f.%     B.V.B.B.B.B.B.B.B.B.            V.B.N.V.B.g.        B.B.V.B.)   ",
"  B.N.N.B.<         N.B.N.2   B.B.N.N.B.|     N.B.N.N.B.I     N.N.N.N.N.B.N.B.B.N.B.N.          B.N.B.N.N.N.        B.N.N.B.'   ",
"  N.N.N.m.#       N.N.N.N.p   N.N.N.N.N.4.    N.N.N.N.p.@     s u I _ g.N.N.N.N.N.N.N.N.          N.N.N.N.N.'         N.N.N.1.  ",
"  N.N.N.u.        N.N.N.N.U     N.N.N.N.m.    N.N.N.m.'                 s 4.N.N.N.N.N.N.N.        N.N.N.N.N.1.        N.N.N.u.  ",
"  N.a.N.4.        N.a.N.N._     N.m.a.N.N.&.    m.N.N.s                     _ a.a.N.N.a.N.N.        N.N.a.N.7.        N.N.N.p.  ",
"  h.h.h.&.        h.h.h.a.1.    a.N.a.N.a.i.    a.a.N.u                       U a.N.N.a.a.a.        a.a.h.h.p.        h.N.a.p.  ",
"  h.h.h.&.        h.h.h.a.u.    a.a.a.a.a.a.i.    u.a.1                 h.h.    &.a.a.a.N.a.i.      a.a.h.h.p.        a.a.a.p.% ",
"  a.a.p.&.        a.a.h.p.u.      a.a.a.a.a.a.      1.i                 a.a.a.    p.a.a.a.a.a.      a.a.a.a.i.        h.p.h.i.# ",
"  d.h.d.*.        a.d.h.a.d.      a.d.a.a.a.f.d.      +                 h.a.a.      d.h.a.d.f.*.    h.d.a.f.5.        a.a.d.i.@ ",
"  d.d.d.6.        d.d.d.d.d.p       d.a.d.d.d.d.d.d.                    d.d.d.d.    d.d.d.d.d.t.    d.d.d.d.*.        d.a.d.5.  ",
"  d.d.d.t.        d.s.d.d.d.^         y.d.s.d.d.d.d.d.                  d.s.d.d.`     d.d.d.d.d.i     d.d.d.Q         d.d.d.*.  ",
"  d.d.s.s.        d.s.s.s.s.3.          t.d.s.d.d.d.s.s.y.d.s.d.      s.d.s.s.s.*.    d.s.i.i.i.d     d.s.s.1       s.d.s.s.^   ",
"  y.y.y.y.d         y.s.y.s.t.          ! y.y.y.y.y.y.y.y.y.y.y.e     y.s.y.y.y.%.    y.y.y.y.y.Q     y.y.3.+       y.y.s.y.m   ",
"  y.y.y.r.^         y.y.y.y.s.r.          f :.y.y.y.y.y.y.y.r.i .   s.y.y.y.y.y.r     y.y.y.y.y.m     y.y.m         y.y.y.y.e   ",
"    y.y.s.*.        r.y.y.y.r.s.s.            ! 3.y.y.y.y.*.2 .   y.r.y.y.y.y.:.+     y.y.y.r.y.d     y.3.#         y.y.y.r.%   ",
"    r.r.y.r.          r.s.r.r.y.r.r.            & d %.~ 1 X     r.r.r.y.r.y.r.r       y.r.r.r.y.f     r.f         r.r.r.r.%.    ",
"    r.r.r.r.^           r.r.r.r.r.r.r.                        r.r.r.r.r.r.r.^ .       r.r.r.r.r.,     O.O         r.r.r.r.d     ",
"    r.r.r.r.>.          -.r.r.r.r.r.r.r.r.                r.r.r.r.r.r.<.r.-.#       r.<.r.r.<.<.@   >.%           r.r.r.r.&     ",
"      <.<.<.<./           o.<.<.<.<.<.<.<.r.<.<.<.r.<.<.<.<.<.<.<.<.r.<.-.&         r.<.<.r.<./                 <.r.<.<./ .     ",
"      <.<.<.<.-.            / <.<.<.<.<.<.<.<.<.<.<.<.<.<.<.<.<.<.<.<.o.&         <.<.<.<.<.<.r                 <.<.<.<.,       ",
"        <.<.<.,.#.            n ;.<.,.<.<.,.<.<.<.,.<.,.,.<.,.<.,.<.M +           <.,.<.,.<.-.@               <.,.<.<.o.X       ",
"        ,.,.,.,.,.              > ~ ,.<.,.,.,.,.,.,.,.,.,.,.,.<.O.> .           ,.,.,.,.,.,.y                 ,.,.,.,.q         ",
"          ,.,.,.,.,.                - n #.,.,.,.;.,.,.,.,.-.M > .             ,.,.,.,.,.,...O               ,.,.;.,.( X         ",
"          ,.;.,.,.;.;.                  + = w a n n a w = + X             ,.;.;.;.;.;.;.$.=               ;.;.;.;.;.&           ",
"            $.$.$.$.;.                                              ;.$.$.$.$.;.;.$.;.$.q               $.$.;.$.$.y             ",
"              $.$.$.$.$.                ..$.$.        $.$.$.$.$.$.$.$.$.$.$.$.$.$.$.$.q .             $.$.$.$.$.V .             ",
"                $.@.$.$.$.                N @.$.$.@.$.$.@.$.@.$.$.$.@.$.$.$.@.$.$.X.- .             @.$.$.$.@.X.@               ",
"                C @.@.@.@.@.                w H @.@.@.@.@.@.@.@.@.@.@.@.@.@.@.@.N #               @.@.@.@.@.+.&                 ",
"                  C @.@.@.@.@.@.                t H @.@.@.@.@.@.@.@.@.@.@.+.B = .               @.@.@.@.@.P =                   ",
"                    B P P P P P P                   = t C J P P P P K c w # .               P P P P P P J =                     ",
"                      c P P P P P P P                     . o + + X . X                   P P P P P P K $                       ",
"                        t J L L L P L P L                                             P L P L P L L b #                         ",
"                            b L L L L L L L L                                   L L L L L L L L L w X                           ",
"                              t D L G L L L L L L G L G                 G L L G L G L L L G L x # O                             ",
"                                  0 D G G G G G L G L G G G G G G G G L G L G G L G F F G b - X                                 ",
"                                      9 v G F G G F F F F G F G G F G G F G F G F F S x * .                                     ",
"                                          * 0 v F F F F F F F F F F F F F F F S x 8 + .                                         ",
"                                                # - 9 h j j Z A A Z j h g 8 $ o .                                               ",
"                                                          . . X X X . .                                                         "
};
