/* XPM */
static char *_cd937aa267e42c4a529c741264a39f6[] = {
/* columns rows colors chars-per-pixel */
"64 64 11 1 ",
"  c gray16",
". c #2A2828",
"X c #2A2928",
"o c #2B2928",
"O c #2A2929",
"+ c #2B2929",
"@ c #2A2A28",
"# c #2B2A28",
"$ c #2A2A29",
"% c #2B2A29",
"& c None",
/* pixels */
"&&&&&&&&&&&&&&&&&&&&&&&&&&%%.%.##%%%%%&&&&&&&&&&&&&&&&&&&&&&&&&&",
"&&&&&&&&&&&&&&&&&&&&&&%%%%%%%%.#.%%#%%%%%%&&&&&&&&&&&&&&&&&&&&&&",
"&&&&&&&&&&&&&&&&&&&&%%%%%%&&&&&&&&&&&&%%%%%%&&&&&&&&&&&&&&&&&&&&",
"&&&&&&&&&&&&&&&&&%%%%%&&&&&&&&&&&&&&&&&&&&%%%%%&&&&&&&&&&&&&&&&&",
"&&&&&&&&&&&&&&&&.%.%&&&&&&&&&&&&&&&&&&&&&&&&%%%.&&&&&&&&&&&&&&&&",
"&&&&&&&&&&&&&&%%%%&&&&&&&&&&&&&&&&&&&&&&&&&&&&%%%%&&&&&&&&&&&&&&",
"&&&&&&&&&&&&&.%%&&&&&&&&&&&&&&&&&&&&&&&&&&&&&&&&%%%&&&&&&&&&&&&&",
"&&&&&&&&&&&%%%&&&&&&&&&&&&&&&&&&&&&&&&&&&&&&&&&&&&.%%&&&&&&&&&&&",
"&&&&&&&&&&%%%&&&&&&&&&&&&&&&&&&&&&&&&&&&&&&&&&&&&&&%%%&&&&&&&&&&",
"&&&&&&&&&%%%&&&&&&&&&&&&&&&&&&&&&&&&&&&&&&&&&&&&&&&&%%%&&&&&&&&&",
"&&&&&&&&%%%&&&&&&&&&&&&&&&&&&&&&&&&&&&&&&&&&&&&&&&&&&%%%&&&&&&&&",
"&&&&&&&.%%&&&&&&&&&&&&&&&&&&&&&&&&&&&&&&&&&&&&&&&&&&&&%%%&&&&&&&",
"&&&&&&&%%&&&&%.%%%..%%%%%%%%%%%%&&&&&&%&&&&&&&&&&&&&&&&%%&&&&&&&",
"&&&&&&%.&&&&%%%%%%%%%%%%%%%%%%%%%%%&&%&&&&&&&&&&&&&&&&&&%%&&&&&&",
"&&&&&%%&&&&&&&&%%%%%%%%&&&&&%%%%%%%%%&&&&&&&&&&&&&&&&&&&&%%&&&&&",
"&&&&&%%&&&&&&&&&%%%%%%&&&&&&&&&%%%%%%&&&&&&&&&&&&&&&&&&&&%%&&&&&",
"&&&&%.&&&&&&&&&&##%%%#&&&&&&&&&&.%%%%&&&&&&&&&&&&&&&&&&&&&..&&&&",
"&&&%%%&&&&&&&&&&&#%%%%&&&&&&&&&&&%%&&&&&&&&&&&&&&&&&&&&&&&%%%&&&",
"&&&%%&&&&&&&&&&&&##%%%&&&&&&&&&&&%%%%%%&&&&&&&&&&&&&&&&&&&&%%&&&",
"&&&%%&&&&&&&&&&&&#%%%%&&&&&&&&&&%&%%%%%&&&&&&&&&&&&&&&&&&&&%%&&&",
"&&%%&&&&&&&&&&&&&%%%%%&&&&&&&&&&%&%%%%%&&&&&&&&&&&&&&&&&&&&&%%&&",
"&&%%&&&&&&&&&&&&&%%%%%&&&&&&&&&&&&%%%%%%&&&&&&&&&&&&&&&&&&&&%%&&",
"&%%&&&&&&&&&&&&&&%%%%%&&&&&&&&&&&.%%%%%%&&&&&&&&&&&&&&&&&&&&&%%&",
"&%%&&&&&&&&&&&&&&%%%%%&&&&&&&&&&&%%%%%%%&&&&&&&&&&%&&&&&&&&&&%%&",
"&%%&&&&&&&&&&&&&%%%%%%&&&&&&&&&&&&%%%%%&&&&&&&&&&&&&&&&&&&&&&%%&",
"&%%&&&&&&&&&&&&&%%%%%%&&&&&&&&&&&&%%%%%&&&&&&&&&&&&&&&&&&&&&&%%&",
"%%&&&&&&&&&&&&&&&%%%%%&&&&&&&&&&&&%%%%.&&&&&&&&&&&&&&&&&&&&&&&%%",
"%%&&&&&&&&&&&&&&&%%%%%&&&&&&&&&&&%%%%%&&&&&&&&&&&&&&&&&&&&&&&&%%",
"%%&&&&&&&&&&&&&&&%%%%%&&&&&&&&&&&.%%%%&&&&&&&&&&&&&&&&&&&&&&&&%%",
"%.&&&&&&&&&&&&&&&%%%%%&&&&&&&&&&%%%%%&&%%%&&&&&&&&&&&&&&&&&&&&.%",
"..&&&&&&&&&&&&&&&%%%%%&&&&&&&&&%%%%%&&&&&&&&%&&&&&&&&&&&&&&&&&..",
"%.&&&&&&&&&&&&&&&%%%%%&&&&&&&%%%%%%&&&&&&&&&&&&&&&&&&&&&&&&&&&##",
"%.&&&&&&&&&&&&&&&%%%%%%%%%%%%%%%%%&&&&&&&&&&&&&&&&&&&&&&&&&&&&%%",
".%&&&&&&&&&&&&&&&%%%%..%.%%%%%%%%%%&&&&&&&&&&&&&&&&&&&&&&&&&&&..",
"%.&&&&&&&&&&&&&&&%%%%.%&&&&&&%%%%%%%&&&&&&&&&&&&&&&&&&&&&&&&&&.#",
"##&&&&&&&&&&&&&&&%%%%%&&&&&%%&%%%%%%%&&&&&&&&&%&&&&&&&&&&&&&&&##",
"#%&&&&&&&&&&&&&&&%%%%.&&&&&&&&&%%&.%%&&&&&&&&&%&&&&&&&&&&&&&&&##",
"%%&&&&&&&&&&&&&&%%%%%.&&&&&&&%&&&&&.%.&&&&&&&&%&&&&&&&&&&&&&&&%%",
"&%%&&&&&&&&&&&&%&%%%%%&&&&&&&&&&%%%%%%&&&&&&&&%%&&&&&&&&&&&&&%%&",
"&%%&&&&&&&&&&&%&&%%%%%&&&&&&&&&&&%%%%%%&&&&&&%%%&&&&&&&&&&&&&%%&",
"&%%&&&&&&&&&&%&&&%%%%%&&&&&&&&%&&&%%%%%.&&&&&%%%&&&&&&&&&&&&&%%&",
"&%%&&&&&&&&&&&&&&%%%%%&&&&&&&&%&&&%%%%%%%&&&%%%&&&&&&&&&&&&&&%%&",
"&&%%&&&&&&&&&&&&&%%%%%&&&&&&&&&&&&&%%%%%%&&%%%%&&&&&&&&&&&&&%%&&",
"&&%%&&&&&&&&&&&&%%%%%%&&&&&&&&&%&&&&%%%%%..%%%&&&&&&&&&&&&&&%%&&",
"&&&%%&&&&&&&&&&&%%%%%%&&&&&&&&&%&&&&&%%%%%%%%.&&&&&&&&&&&&&%%&&&",
"&&&%%&&&&&&&&&%%%%%%%.&&&&&&&&&&&&&&&%%%%%%%#&&&&&&&&&&&&&&.%&&&",
"&&&%%%&&&&&&%%%%%%%%%%%%%%&&&&&&&&&&&&%%%%%%%&&&&&&&&&&&&&%%%&&&",
"&&&&.%&&&&&&&.%%&&&&&&&%%%&&&%&&&&&&&&%%%%%%%&%&&&&&&&&&&&.%&&&&",
"&&&&&%%&&&&&&&&&&&&&&&&&&&&&%&&&&&&&&.%%%%%%%%%%%&&&&&&&&%%&&&&&",
"&&&&&%%&&&&&&&&&&&&&&&&&&&&%&&&&&&&%%%%%%&%%%%%%%.%&&&&&&%%&&&&&",
"&&&&&&..&&&&&&&&&&&&&&&&&&&&&&&%%%%%%%%%&&&&&%%%%%%&&&&&%%&&&&&&",
"&&&&&&&%%&&&&&&&&&&&&&&&&%&&&&&&..%%.%&&&&&&&&&&&&&&&&&%%&&&&&&&",
"&&&&&&&%%%&&&&&&&&&&&&&&&&&&&&&&&&&&&&&&&&&&&&&&&&&&&&%%%&&&&&&&",
"&&&&&&&&%%%&&&&&&&&&&&&&&&&&&&&&&&&&&&&&&&&&&&&&&&&&&%%%&&&&&&&&",
"&&&&&&&&&%%%&&&&&&&&&&&&&&&&&&&&&&&&&&&&&&&&&&&&&&&&%%%&&&&&&&&&",
"&&&&&&&&&&%%%&&&&&&&&&&&&&&&&&&&&&&&&&&&&&&&&&&&&&&%%%&&&&&&&&&&",
"&&&&&&&&&&&%%.&&&&&&&&&&&&&&&&&&&&&&&&&&&&&&&&&&&&%%%&&&&&&&&&&&",
"&&&&&&&&&&&&&%%%&&&&&&&&&&&&&&&&&&&&&&&&&&&&&&&&%%.&&&&&&&&&&&&&",
"&&&&&&&&&&&&&&%%o%&&&&&&&&&&&&&&&&&&&&&&&&&&&&%.%%&&&&&&&&&&&&&&",
"&&&&&&&&&&&&&&&&.%%%&&&&&&&&&&&&&&&&&&&&&&&&%%%%&&&&&&&&&&&&&&&&",
"&&&&&&&&&&&&&&&&&%%%%%&&&&&&&&&&&&&&&&&&&&%%%%%&&&&&&&&&&&&&&&&&",
"&&&&&&&&&&&&&&&&&&&&%%%%%%&&&&&&&&&&&&%%%%%%&&&&&&&&&&&&&&&&&&&&",
"&&&&&&&&&&&&&&&&&&&&&&%%%%%%#%..%..%%%%%%%&&&&&&&&&&&&&&&&&&&&&&",
"&&&&&&&&&&&&&&&&&&&&&&&&&&%%###%%.%%%%&&&&&&&&&&&&&&&&&&&&&&&&&&"
};
