/* XPM */
static char *de6b633bc35146d28ef3ce757fae8a9c[] = {
/* columns rows colors chars-per-pixel */
"16 16 119 2 ",
"   c None",
".  c #9B1D1F",
"X  c #96221E",
"o  c #9D301F",
"O  c #A32D20",
"+  c #B02024",
"@  c #B62125",
"#  c #B72225",
"$  c #B82125",
"%  c #AD3222",
"&  c #AF3723",
"*  c #AF3F23",
"=  c #BC3726",
"-  c #B63A25",
";  c #BC3826",
":  c #BC3C26",
">  c #C52F28",
",  c #C03827",
"<  c #CD312A",
"1  c #CB3D29",
"2  c #D4312B",
"3  c #D4312C",
"4  c #D73F2C",
"5  c #D83F2C",
"6  c #A74D24",
"7  c #B04423",
"8  c #B84724",
"9  c #BA4A25",
"0  c #BA4F25",
"q  c #BF5226",
"w  c #B86133",
"e  c #C04727",
"r  c #CB4529",
"t  c #CE4F2A",
"y  c #D24F2A",
"u  c #DC4A2D",
"i  c #DC4C2D",
"p  c #DD4C2D",
"a  c #C85028",
"s  c #CA5928",
"d  c #CB5929",
"f  c #D7522C",
"g  c #D35E2A",
"h  c #DB5C2C",
"j  c #E1572E",
"k  c #D4642A",
"l  c #D6662B",
"z  c #D7662B",
"x  c #D8622B",
"c  c #D26D2D",
"v  c #D56F2E",
"b  c #D86D2B",
"n  c #DA6E2B",
"m  c #DE712C",
"M  c #DF712C",
"N  c #D0733A",
"B  c #E3612D",
"V  c #E5612E",
"C  c #E5622E",
"Z  c #E76A2E",
"A  c #E96B2F",
"S  c #E96C2F",
"D  c #EA6C2F",
"F  c #EA6D2F",
"G  c #E7772E",
"H  c #E9732F",
"J  c #EA732F",
"K  c #EE762F",
"L  c #EF7C2F",
"P  c #EE7530",
"I  c #EE7630",
"U  c #E27931",
"Y  c #E27932",
"T  c #E67C32",
"R  c #F17E30",
"E  c #F37F30",
"W  c #F38030",
"Q  c #F58634",
"!  c #F58735",
"~  c #F58736",
"^  c #F58836",
"/  c #F58837",
"(  c #B88368",
")  c #DD884E",
"_  c #CA8053",
"`  c #CA8155",
"'  c #CA8256",
"]  c #CE8455",
"[  c #E78642",
"{  c #EA8943",
"}  c #F69145",
"|  c #F69245",
" . c #F69246",
".. c #F69247",
"X. c #F39B57",
"o. c #F79C56",
"O. c #F79D57",
"+. c #F59C58",
"@. c #F79E58",
"#. c #F79E59",
"$. c #F79F59",
"%. c #DF9560",
"&. c #C69474",
"*. c #CE9B79",
"=. c #E69B63",
"-. c #DFA171",
";. c #F6AA6C",
":. c #F9AC6D",
">. c #F1B47E",
",. c #FAB87E",
"<. c #FAB97E",
"1. c #FABA7F",
"2. c #DEAE86",
"3. c #FABA80",
"4. c #F6C797",
"5. c #F9C998",
"6. c #FCDBB1",
"7. c #FCDBB2",
"8. c #FCDCB3",
/* pixels */
"            7.8.8.7.            ",
"        4.*.(     &.2.5.        ",
"    3.-.    <.3.3.,.    >.<.    ",
"    %.    :.=.' ' ] _     ;.    ",
"  X.    @.)   o.@.$.@.o.    @.  ",
"  N      .   .[ w     {  .   .  ",
"^   ! v ^ c ! 6 Y / !   ^ T   Y ",
"E   E b W G n       E L W m   m ",
"I   I z K I       I P H   k   l ",
"S   S Z   x S g   A q D d 0   d ",
"  h   B C   9 a C 9   B     C 7 ",
"  j     t j j f *   j e     y   ",
"    i     & - : u i r     i o   ",
"    1 5     ; , = %     4 O     ",
"        < 2         3 > X       ",
"            $ $ @ + .           "
};
